<svg width="20" height="21" viewBox="0 0 20 21" fill="none" xmlns="http://www.w3.org/2000/svg">
<g opacity="0.3" clip-path="url(#clip0)">
<path d="M10 20.8612C11.1989 20.8612 12.2313 20.137 12.6843 19.1034H7.31567C7.76868 20.137 8.80114 20.8612 10 20.8612Z" fill="black"/>
<path d="M16.0547 10.5433V9.25964C16.0547 6.53222 14.2417 4.22054 11.7578 3.4655V2.61902C11.7578 1.64976 10.9692 0.861206 9.99998 0.861206C9.03073 0.861206 8.24217 1.64976 8.24217 2.61902V3.4655C5.75819 4.22054 3.9453 6.53218 3.9453 9.25964V10.5433C3.9453 12.9391 3.03209 15.2108 1.37393 16.94C1.21143 17.1095 1.16577 17.3595 1.25788 17.5755C1.34998 17.7914 1.56209 17.9315 1.79686 17.9315H18.2031C18.4379 17.9315 18.6499 17.7914 18.7421 17.5755C18.8342 17.3595 18.7885 17.1095 18.626 16.94C16.9679 15.2108 16.0547 12.9391 16.0547 10.5433ZM10.5859 3.23339C10.3931 3.2148 10.1976 3.20496 9.99998 3.20496C9.80233 3.20496 9.6069 3.2148 9.41405 3.23339V2.61902C9.41405 2.29593 9.6769 2.03308 9.99998 2.03308C10.3231 2.03308 10.5859 2.29593 10.5859 2.61902V3.23339Z" fill="black"/>
<path d="M17.6172 9.25965C17.6172 9.58324 17.8795 9.84558 18.2031 9.84558C18.5267 9.84558 18.7891 9.58324 18.7891 9.25965C18.7891 6.91199 17.8748 4.70484 16.2148 3.04481C15.986 2.81602 15.615 2.81598 15.3862 3.04481C15.1573 3.27363 15.1573 3.64461 15.3862 3.87344C16.8249 5.31215 17.6172 7.225 17.6172 9.25965Z" fill="black"/>
<path d="M1.79687 9.84559C2.12047 9.84559 2.38281 9.58324 2.38281 9.25965C2.38281 7.22504 3.17516 5.31219 4.61383 3.87348C4.84266 3.64466 4.84266 3.27368 4.61383 3.04485C4.38504 2.81602 4.01402 2.81602 3.7852 3.04485C2.12516 4.70489 1.21094 6.912 1.21094 9.25965C1.21094 9.58324 1.47328 9.84559 1.79687 9.84559Z" fill="black"/>
</g>
<defs>
<clipPath id="clip0">
<rect width="20" height="20" fill="white" transform="translate(0 0.861206)"/>
</clipPath>
</defs>
</svg>
