<svg width="20" height="21" viewBox="0 0 20 21" fill="none" xmlns="http://www.w3.org/2000/svg">
<g opacity="0.3" clip-path="url(#clip0)">
<path d="M14.4767 14.0311C13.2765 15.0733 11.7106 15.705 10 15.705C8.28937 15.705 6.72352 15.0733 5.52332 14.0311C4.90656 14.4796 4.35652 15.0224 3.88969 15.6485C2.90387 16.9706 2.38281 18.5435 2.38281 20.1972V20.2753C2.38281 20.5989 2.64516 20.8612 2.96875 20.8612H17.0312C17.3548 20.8612 17.6172 20.5989 17.6172 20.2753V20.1972C17.6172 18.5435 17.0961 16.9706 16.1103 15.6485C15.6435 15.0224 15.0934 14.4796 14.4767 14.0311Z" fill="black"/>
<path d="M11.0554 11.7704C11.0702 11.4552 11.3417 11.2128 11.6572 11.2128H15.156C15.4821 10.4982 15.6641 9.70445 15.6641 8.86902C15.6641 5.74585 13.1232 3.20496 10 3.20496C6.87684 3.20496 4.33594 5.74585 4.33594 8.86902C4.33594 11.9922 6.87684 14.5331 10 14.5331C11.796 14.5331 13.3993 13.6927 14.4377 12.3846H11.6406C11.3076 12.3846 11.0395 12.1069 11.0554 11.7704Z" fill="black"/>
<path d="M17.8125 6.52527H17.6581C17.1872 4.98984 16.25 3.60968 14.9849 2.60195C13.5552 1.46316 11.8315 0.861206 10 0.861206C8.16852 0.861206 6.44477 1.46316 5.01508 2.60195C3.74996 3.60968 2.81277 4.98984 2.34191 6.52527H2.1875C1.86391 6.52527 1.60156 6.78761 1.60156 7.11121V9.45496C1.60156 9.77855 1.86391 10.0409 2.1875 10.0409H3.16406V8.86902C3.16406 8.04605 3.31027 7.25664 3.57805 6.52527H3.57609C4.54707 3.84625 7.09027 2.03308 10 2.03308C12.9097 2.03308 15.4529 3.84625 16.4239 6.52527H16.422C16.6897 7.25664 16.8359 8.04605 16.8359 8.86902V11.2128H15.1559L14.4377 12.3846H17.4219C17.7455 12.3846 18.0078 12.1223 18.0078 11.7987V10.0068C18.2352 9.92632 18.3984 9.70996 18.3984 9.45496V7.11121C18.3984 6.78761 18.1361 6.52527 17.8125 6.52527Z" fill="black"/>
</g>
<defs>
<clipPath id="clip0">
<rect width="20" height="20" fill="white" transform="translate(0 0.861206)"/>
</clipPath>
</defs>
</svg>
