<svg width="19" height="19" viewBox="0 0 19 19" fill="none" xmlns="http://www.w3.org/2000/svg">
<path d="M15.0178 11.7697C14.6288 11.3647 14.1596 11.1481 13.6624 11.1481C13.1691 11.1481 12.696 11.3607 12.2909 11.7657L11.0238 13.0289C10.9195 12.9727 10.8152 12.9206 10.715 12.8685C10.5706 12.7963 10.4343 12.7281 10.318 12.6559C9.131 11.902 8.05229 10.9196 7.01769 9.64837C6.51643 9.01477 6.17958 8.48143 5.93496 7.94007C6.26379 7.63932 6.56856 7.32653 6.8653 7.02577C6.97759 6.91349 7.08987 6.7972 7.20215 6.68492C8.04427 5.8428 8.04427 4.75206 7.20215 3.90994L6.1074 2.81519C5.98308 2.69088 5.85476 2.56256 5.73446 2.43423C5.49385 2.18561 5.24122 1.92896 4.98056 1.68836C4.59159 1.30339 4.12642 1.09888 3.63719 1.09888C3.14796 1.09888 2.67477 1.30339 2.27376 1.68836C2.26975 1.69237 2.26975 1.69237 2.26574 1.69638L0.902313 3.07184C0.389023 3.58513 0.0962872 4.2107 0.0321259 4.93652C-0.064116 6.10747 0.280751 7.19821 0.545416 7.912C1.19505 9.66441 2.16549 11.2885 3.61313 13.0289C5.36954 15.1261 7.48285 16.7823 9.89692 17.9492C10.8192 18.3863 12.0503 18.9036 13.4258 18.9919C13.51 18.9959 13.5982 18.9999 13.6784 18.9999C14.6048 18.9999 15.3827 18.667 15.9922 18.0054C15.9963 17.9974 16.0043 17.9933 16.0083 17.9853C16.2168 17.7327 16.4574 17.5041 16.71 17.2595C16.8825 17.0951 17.0589 16.9227 17.2314 16.7422C17.6284 16.3292 17.8369 15.848 17.8369 15.3547C17.8369 14.8575 17.6243 14.3803 17.2193 13.9793L15.0178 11.7697ZM16.4534 15.9923C16.4494 15.9923 16.4494 15.9963 16.4534 15.9923C16.297 16.1607 16.1366 16.3131 15.9642 16.4815C15.7035 16.7302 15.4389 16.9908 15.1902 17.2836C14.7852 17.7166 14.308 17.9212 13.6824 17.9212C13.6223 17.9212 13.5581 17.9212 13.498 17.9172C12.307 17.841 11.2002 17.3758 10.3701 16.9788C8.10041 15.88 6.1074 14.3201 4.45123 12.3431C3.0838 10.695 2.1695 9.17117 1.56398 7.53506C1.19104 6.53655 1.0547 5.75859 1.11485 5.02475C1.15495 4.55557 1.3354 4.16659 1.66824 3.83375L3.03568 2.46631C3.23217 2.28185 3.44069 2.1816 3.64521 2.1816C3.89784 2.1816 4.10236 2.33398 4.23068 2.4623C4.23469 2.46631 4.2387 2.47032 4.24271 2.47433C4.48732 2.70291 4.71991 2.9395 4.96452 3.19214C5.08884 3.32046 5.21716 3.44878 5.34548 3.58112L6.44023 4.67587C6.8653 5.10094 6.8653 5.49392 6.44023 5.91899C6.32394 6.03529 6.21166 6.15158 6.09537 6.26386C5.75852 6.60873 5.43771 6.92953 5.08884 7.24232C5.08082 7.25034 5.0728 7.25435 5.06879 7.26237C4.72392 7.60724 4.78808 7.94408 4.86026 8.17266C4.86427 8.18469 4.86828 8.19672 4.87229 8.20875C5.15701 8.89848 5.55802 9.54812 6.16755 10.3221L6.17156 10.3261C7.27834 11.6895 8.44527 12.7522 9.73251 13.5662C9.89692 13.6705 10.0653 13.7547 10.2257 13.8349C10.3701 13.9071 10.5065 13.9752 10.6227 14.0474C10.6388 14.0554 10.6548 14.0675 10.6709 14.0755C10.8072 14.1437 10.9355 14.1757 11.0679 14.1757C11.4007 14.1757 11.6092 13.9672 11.6774 13.8991L13.0488 12.5276C13.1852 12.3913 13.4017 12.2268 13.6544 12.2268C13.903 12.2268 14.1075 12.3832 14.2318 12.5196C14.2358 12.5236 14.2358 12.5236 14.2398 12.5276L16.4494 14.7372C16.8624 15.1462 16.8624 15.5672 16.4534 15.9923Z" fill="black"/>
<path d="M10.2698 4.51949C11.3205 4.69593 12.2749 5.19318 13.0368 5.95509C13.7987 6.71701 14.2919 7.67141 14.4724 8.72205C14.5165 8.98671 14.7451 9.17118 15.0057 9.17118C15.0378 9.17118 15.0659 9.16717 15.098 9.16316C15.3947 9.11504 15.5912 8.83433 15.5431 8.53758C15.3265 7.26639 14.725 6.10748 13.8067 5.18917C12.8884 4.27086 11.7295 3.66935 10.4583 3.4528C10.1616 3.40468 9.88486 3.60118 9.83273 3.89391C9.7806 4.18665 9.97308 4.47136 10.2698 4.51949Z" fill="black"/>
<path d="M18.9784 8.3813C18.6215 6.28804 17.635 4.38325 16.1192 2.86744C14.6034 1.35163 12.6986 0.36515 10.6054 0.00825334C10.3126 -0.0438777 10.0359 0.156626 9.98381 0.449362C9.93569 0.746108 10.1322 1.0228 10.4289 1.07493C12.2976 1.39173 14.0019 2.27796 15.3573 3.62936C16.7127 4.98476 17.5949 6.68905 17.9117 8.55774C17.9558 8.82241 18.1844 9.00687 18.4451 9.00687C18.4772 9.00687 18.5052 9.00286 18.5373 8.99885C18.83 8.95474 19.0305 8.67404 18.9784 8.3813Z" fill="black"/>
</svg>
