<svg width="14" height="14" viewBox="0 0 14 14" fill="none" xmlns="http://www.w3.org/2000/svg">
<path fill-rule="evenodd" clip-rule="evenodd" d="M7.18928 6.86364C7.89118 6.86364 8.462 7.43445 8.462 8.13636C8.462 8.83827 7.89118 9.40909 7.18928 9.40909C6.48737 9.40909 5.91655 8.83827 5.91655 8.13636C5.91655 7.43445 6.48737 6.86364 7.18928 6.86364ZM7.18928 10.6818C8.595 10.6818 9.73473 9.54209 9.73473 8.13636C9.73473 6.73064 8.595 5.59091 7.18928 5.59091C5.78355 5.59091 4.64382 6.73064 4.64382 8.13636C4.64382 9.54209 5.78355 10.6818 7.18928 10.6818ZM2.09091 11.6364C2.09091 11.9878 2.37582 12.2727 2.72727 12.2727H11.6364C11.9878 12.2727 12.2727 11.9878 12.2727 11.6364V5.27273C12.2727 4.92127 11.9878 4.63636 11.6364 4.63636H2.72727C2.37582 4.63636 2.09091 4.92127 2.09091 5.27273V11.6364ZM5.27273 2.72727C5.27273 3.07873 5.55764 3.36364 5.90909 3.36364H8.45455C8.806 3.36364 9.09091 3.07873 9.09091 2.72727C9.09091 2.37582 8.806 2.09091 8.45455 2.09091H5.90909C5.55764 2.09091 5.27273 2.37582 5.27273 2.72727ZM13.2275 3.36381C13.0517 3.36381 12.9093 3.22136 12.9093 3.04563V2.72745C12.9093 2.376 12.6244 2.09109 12.2729 2.09109C11.9215 2.09109 11.6365 2.376 11.6365 2.72745C11.6365 3.0789 11.3516 3.36381 11.0002 3.36381C10.6487 3.36381 10.3638 3.0789 10.3638 2.72745V1.45472C10.3638 1.10327 10.0789 0.818359 9.72745 0.818359H4.63654C4.28509 0.818359 4.00018 1.10327 4.00018 1.45472V2.72745C4.00018 3.0789 3.71527 3.36381 3.36381 3.36381H1.45472C1.10327 3.36381 0.818359 3.64872 0.818359 4.00018V12.9093C0.818359 13.2607 1.10327 13.5456 1.45472 13.5456H12.9093C13.2607 13.5456 13.5456 13.2607 13.5456 12.9093V3.682C13.5456 3.50627 13.4032 3.36381 13.2275 3.36381Z" fill="#FF7933"/>
</svg>
