<svg width="26" height="26" viewBox="0 0 26 26" fill="none" xmlns="http://www.w3.org/2000/svg">
<g opacity="0.3" clip-path="url(#clip0)">
<path d="M14.2463 18.9764L14.5254 7.25769H10.4476L11.1452 18.9764H14.2463Z" fill="black"/>
<path d="M20.0654 7.25769H15.9906L15.7116 18.9764H18.8099L20.0654 7.25769Z" fill="black"/>
<path d="M25.3319 7.52317C25.1927 7.35505 24.9859 7.25769 24.7676 7.25769H21.5386L20.2831 18.9764H22.8145C23.1661 18.9764 23.4682 18.7265 23.534 18.3811L25.4871 8.12717C25.5279 7.91277 25.471 7.69133 25.3319 7.52317Z" fill="black"/>
<path d="M22.8145 20.4413H8.6543C8.25044 20.4413 7.92188 20.1127 7.92188 19.7089V18.9764H9.67773L8.98018 7.25769H6.35981L5.92192 4.19236C5.73413 2.87786 4.59121 1.8866 3.26338 1.8866H1.23242C0.82793 1.8866 0.5 2.21453 0.5 2.61902C0.5 3.02351 0.82793 3.35144 1.23242 3.35144H3.26338C3.86694 3.35144 4.38647 3.80203 4.47183 4.39949L6.45703 18.2961V19.7089C6.45703 20.9204 7.44272 21.9061 8.6543 21.9061H8.89946C8.66904 22.2124 8.53223 22.5928 8.53223 23.0048C8.53223 24.0144 9.35366 24.8358 10.3633 24.8358C11.3729 24.8358 12.1943 24.0144 12.1943 23.0048C12.1943 22.5928 12.0576 22.2124 11.8271 21.9061H18.1768C17.9463 22.2124 17.8095 22.5928 17.8095 23.0048C17.8095 24.0144 18.631 24.8358 19.6406 24.8358C20.6502 24.8358 21.4716 24.0144 21.4716 23.0048C21.4716 22.5928 21.3349 22.2124 21.1044 21.9061H22.8145C23.2189 21.9061 23.5469 21.5782 23.5469 21.1737C23.5469 20.7692 23.2189 20.4413 22.8145 20.4413Z" fill="black"/>
</g>
<defs>
<clipPath id="clip0">
<rect width="25" height="25" fill="white" transform="translate(0.5 0.861206)"/>
</clipPath>
</defs>
</svg>
