<svg width="26" height="26" viewBox="0 0 26 26" fill="none" xmlns="http://www.w3.org/2000/svg">
<g clip-path="url(#clip0)">
<path d="M9.02959 16.9715H9.03073C9.03169 16.9715 9.03264 16.9713 9.0336 16.9713H22.3127C22.6397 16.9713 22.9271 16.7544 23.0169 16.4401L25.9466 6.18621C26.0098 5.96515 25.9655 5.72749 25.8272 5.54401C25.6888 5.36052 25.4723 5.25256 25.2424 5.25256H7.34044L6.81687 2.89642C6.7423 2.56129 6.44513 2.32288 6.10181 2.32288H1.70728C1.30273 2.32288 0.974854 2.65075 0.974854 3.0553C0.974854 3.45985 1.30273 3.78772 1.70728 3.78772H5.51434C5.60704 4.20524 8.01984 15.063 8.15869 15.6877C7.3803 16.026 6.83423 16.8021 6.83423 17.7037C6.83423 18.9153 7.81995 19.901 9.0315 19.901H22.3127C22.7173 19.901 23.0452 19.5731 23.0452 19.1686C23.0452 18.764 22.7173 18.4362 22.3127 18.4362H9.0315C8.62771 18.4362 8.29907 18.1075 8.29907 17.7037C8.29907 17.3005 8.62657 16.9725 9.02959 16.9715ZM24.2714 6.71741L21.7602 15.5065H9.61896L7.66583 6.71741H24.2714Z" fill="#FF5800"/>
<path d="M8.29907 22.0983C8.29907 23.3098 9.28479 24.2955 10.4963 24.2955C11.7079 24.2955 12.6936 23.3098 12.6936 22.0983C12.6936 20.8867 11.7079 19.901 10.4963 19.901C9.28479 19.901 8.29907 20.8867 8.29907 22.0983ZM10.4963 21.3658C10.9001 21.3658 11.2288 21.6945 11.2288 22.0983C11.2288 22.5021 10.9001 22.8307 10.4963 22.8307C10.0926 22.8307 9.76392 22.5021 9.76392 22.0983C9.76392 21.6945 10.0926 21.3658 10.4963 21.3658Z" fill="#FF5800"/>
<path d="M18.6506 22.0983C18.6506 23.3098 19.6364 24.2955 20.8479 24.2955C22.0594 24.2955 23.0452 23.3098 23.0452 22.0983C23.0452 20.8867 22.0594 19.901 20.8479 19.901C19.6364 19.901 18.6506 20.8867 18.6506 22.0983ZM20.8479 21.3658C21.2517 21.3658 21.5803 21.6945 21.5803 22.0983C21.5803 22.5021 21.2517 22.8307 20.8479 22.8307C20.4441 22.8307 20.1155 22.5021 20.1155 22.0983C20.1155 21.6945 20.4441 21.3658 20.8479 21.3658Z" fill="#FF5800"/>
</g>
<defs>
<clipPath id="clip0">
<rect width="25" height="25" fill="white" transform="translate(0.974854 0.809204)"/>
</clipPath>
</defs>
</svg>
