<svg width="21" height="21" viewBox="0 0 21 21" fill="none" xmlns="http://www.w3.org/2000/svg">
<g clip-path="url(#clip0)">
<path d="M7.10411 9.51415C5.68114 10.9181 3.2995 13.2679 3.2995 18.2512C3.2995 18.496 3.45165 18.715 3.68102 18.8004C3.8136 18.8497 6.97325 20.009 10.9167 20.009C14.8602 20.009 18.0198 18.8497 18.1524 18.8004C18.3817 18.715 18.5339 18.496 18.5339 18.2512C18.5339 13.2717 16.1508 10.9176 14.727 9.51106C14.3058 9.09509 13.8464 8.71798 13.8464 7.90407V7.63106C13.8464 7.07368 14.1494 6.62708 14.4037 6.35052C14.8 5.91942 15.0182 5.35978 15.0182 4.77466C15.0182 3.90907 14.5462 3.15212 13.8464 2.74622V0.594971C13.8464 0.271377 13.584 0.0090332 13.2604 0.0090332C12.9368 0.0090332 12.6745 0.271377 12.6745 0.594971V2.43091C11.9893 2.43091 11.3527 2.73435 10.9167 3.23333C10.4807 2.73435 9.84407 2.43091 9.15887 2.43091V0.594971C9.15887 0.271377 8.89653 0.0090332 8.57294 0.0090332C8.24934 0.0090332 7.987 0.271377 7.987 0.594971V2.74622C7.28716 3.15212 6.81512 3.90907 6.81512 4.77466C6.81512 5.35978 7.03341 5.91946 7.42973 6.35056C7.68395 6.62708 7.987 7.07372 7.987 7.63106V7.90524C7.987 8.72134 7.51915 9.10474 7.10411 9.51415ZM8.29243 5.55743C8.09548 5.34321 7.987 5.06521 7.987 4.77466C7.987 4.12849 8.5127 3.60278 9.15887 3.60278C9.64942 3.60278 10.0907 3.91712 10.257 4.38497C10.34 4.6186 10.5612 4.77466 10.8091 4.77466H11.0243C11.2722 4.77466 11.4933 4.6186 11.5764 4.38497C11.7427 3.91712 12.184 3.60278 12.6745 3.60278C13.3207 3.60278 13.8464 4.12849 13.8464 4.77466C13.8464 5.06521 13.7379 5.34317 13.541 5.55743C12.9741 6.17399 12.6745 6.89103 12.6745 7.63106V7.90407C12.6745 9.20001 13.4073 9.85474 13.9034 10.3447C15.237 11.6622 17.2309 13.6318 17.3558 17.8319C16.4148 18.13 13.8704 18.8372 10.9167 18.8372C7.96294 18.8372 5.41844 18.1299 4.47755 17.8319C4.60219 13.6285 6.59454 11.6632 7.92719 10.3484C8.40321 9.87868 9.15887 9.2204 9.15887 7.90524V7.63106C9.15887 6.89106 8.85927 6.17399 8.29243 5.55743Z" fill="black"/>
</g>
<defs>
<clipPath id="clip0">
<rect width="20" height="20" fill="white" transform="translate(0.916687 0.0090332)"/>
</clipPath>
</defs>
</svg>
