<svg width="20" height="24" viewBox="0 0 20 24" fill="none" xmlns="http://www.w3.org/2000/svg">
<path fill-rule="evenodd" clip-rule="evenodd" d="M17.5 20.2656C17.5 20.9556 16.94 21.2506 16.25 21.2506H15C14.31 21.2506 13.75 20.9556 13.75 20.2656V19.0156C13.75 17.6343 12.6313 16.2506 11.25 16.2506H8.75C7.36875 16.2506 6.25 17.6343 6.25 19.0156V20.2656C6.25 20.9556 5.69 21.2506 5 21.2506H3.75C3.06 21.2506 2.5 20.9556 2.5 20.2656V10.1868C2.5 10.0206 2.56625 9.86181 2.6825 9.74431L9.10375 3.32431C9.5925 2.83556 10.3837 2.83556 10.8713 3.32431L17.3175 9.76931C17.4338 9.88681 17.5 10.0456 17.5 10.2106V20.2656ZM20 9.53141C20 9.20016 19.8687 8.88391 19.6362 8.64891L11.7625 0.736412C10.7875 -0.242338 9.20375 -0.246088 8.225 0.728912L0.3675 8.56016C0.1325 8.79516 0 9.11266 0 9.44516V21.5152C0 22.8964 1.11875 23.7502 2.5 23.7502H6.25C7.63125 23.7502 8.75 22.8964 8.75 21.5152V20.2652C8.75 19.5752 9.31 19.0152 10 19.0152C10.69 19.0152 11.25 19.5752 11.25 20.2652V21.5152C11.25 22.8964 12.3687 23.7502 13.75 23.7502H17.5C18.8813 23.7502 20 22.8964 20 21.5152V9.53141Z" fill="#FF5800"/>
</svg>
