<svg width="15" height="13" viewBox="0 0 15 13" fill="none" xmlns="http://www.w3.org/2000/svg">
<path d="M13.9046 1.36675C13.1887 0.554337 12.1954 0.106934 11.1078 0.106934C9.57826 0.106934 8.60988 1.02045 8.06687 1.78682C7.92599 1.98569 7.80614 2.18509 7.70552 2.37273C7.6049 2.18509 7.48508 1.98569 7.34417 1.78682C6.80116 1.02045 5.83278 0.106934 4.30321 0.106934C3.21567 0.106934 2.22239 0.554365 1.50638 1.36678C0.823419 2.14177 0.447266 3.1797 0.447266 4.28936C0.447266 5.49726 0.918854 6.62074 1.93138 7.82492C2.83631 8.90119 4.13817 10.0106 5.64571 11.2952C6.20746 11.7739 6.78837 12.2689 7.40683 12.81L7.4254 12.8263C7.50558 12.8965 7.60555 12.9316 7.70552 12.9316C7.80549 12.9316 7.90546 12.8965 7.98564 12.8263L8.00421 12.81C8.62267 12.2689 9.20358 11.7739 9.76542 11.2951C11.2729 10.0106 12.5747 8.90122 13.4797 7.82492C14.4922 6.62071 14.9638 5.49726 14.9638 4.28936C14.9638 3.1797 14.5876 2.14177 13.9046 1.36675ZM9.21368 10.6478C8.72942 11.0604 8.23103 11.4851 7.70552 11.942C7.18003 11.4852 6.68162 11.0605 6.19728 10.6477C3.24694 8.13363 1.29784 6.47271 1.29784 4.28936C1.29784 3.3869 1.59852 2.54868 2.14451 1.92915C2.69676 1.30259 3.46338 0.95751 4.30321 0.95751C5.46933 0.95751 6.22313 1.67591 6.65012 2.27857C7.03314 2.81908 7.233 3.36396 7.30116 3.57312C7.35817 3.7482 7.5214 3.86668 7.70552 3.86668C7.88964 3.86668 8.05287 3.7482 8.10988 3.57312C8.17804 3.36396 8.3779 2.81908 8.76092 2.27854C9.18791 1.67591 9.94171 0.95751 11.1078 0.95751C11.9477 0.95751 12.7143 1.30259 13.2665 1.92915C13.8125 2.54868 14.1132 3.3869 14.1132 4.28936C14.1132 6.47271 12.1641 8.13363 9.21368 10.6478Z" fill="#FF5800"/>
</svg>
