<svg width="20" height="21" viewBox="0 0 20 21" fill="none" xmlns="http://www.w3.org/2000/svg">
<g opacity="0.3" clip-path="url(#clip0)">
<path d="M0.585938 5.54871C0.262344 5.54871 0 5.28636 0 4.96277V1.44714C0 1.12355 0.262344 0.861206 0.585938 0.861206H4.10156C4.42516 0.861206 4.6875 1.12355 4.6875 1.44714C4.6875 1.77074 4.42516 2.03308 4.10156 2.03308H1.17188V4.96277C1.17188 5.28636 0.909531 5.54871 0.585938 5.54871Z" fill="black"/>
<path d="M19.4141 5.54871C19.0905 5.54871 18.8281 5.28636 18.8281 4.96277V2.03308H15.8984C15.5748 2.03308 15.3125 1.77074 15.3125 1.44714C15.3125 1.12355 15.5748 0.861206 15.8984 0.861206H19.4141C19.7377 0.861206 20 1.12355 20 1.44714V4.96277C20 5.28636 19.7377 5.54871 19.4141 5.54871Z" fill="black"/>
<path d="M4.10156 20.8612H0.585938C0.262344 20.8612 0 20.5989 0 20.2753V16.7596C0 16.436 0.262344 16.1737 0.585938 16.1737C0.909531 16.1737 1.17188 16.436 1.17188 16.7596V19.6893H4.10156C4.42516 19.6893 4.6875 19.9517 4.6875 20.2753C4.6875 20.5989 4.42516 20.8612 4.10156 20.8612Z" fill="black"/>
<path d="M19.4141 20.8612H15.8984C15.5748 20.8612 15.3125 20.5989 15.3125 20.2753C15.3125 19.9517 15.5748 19.6893 15.8984 19.6893H18.8281V16.7596C18.8281 16.436 19.0905 16.1737 19.4141 16.1737C19.7377 16.1737 20 16.436 20 16.7596V20.2753C20 20.5989 19.7377 20.8612 19.4141 20.8612Z" fill="black"/>
<path d="M11.7578 9.10339H15.2734V5.58777H11.7578V9.10339ZM13.5156 6.75964C13.8392 6.75964 14.1016 7.02199 14.1016 7.34558C14.1016 7.66917 13.8392 7.93152 13.5156 7.93152C13.192 7.93152 12.9297 7.66917 12.9297 7.34558C12.9297 7.02199 13.192 6.75964 13.5156 6.75964Z" fill="black"/>
<path d="M11.7578 14.9628H12.9297V16.1346H11.7578V14.9628Z" fill="black"/>
<path d="M4.72656 16.1346H8.24219V12.619H4.72656V16.1346ZM6.48438 13.7909C6.80797 13.7909 7.07031 14.0532 7.07031 14.3768C7.07031 14.7004 6.80797 14.9628 6.48438 14.9628C6.16078 14.9628 5.89844 14.7004 5.89844 14.3768C5.89844 14.0532 6.16078 13.7909 6.48438 13.7909Z" fill="black"/>
<path d="M4.72656 9.10339H8.24219V5.58777H4.72656V9.10339ZM6.48438 6.75964C6.80797 6.75964 7.07031 7.02199 7.07031 7.34558C7.07031 7.66917 6.80797 7.93152 6.48438 7.93152C6.16078 7.93152 5.89844 7.66917 5.89844 7.34558C5.89844 7.02199 6.16078 6.75964 6.48438 6.75964Z" fill="black"/>
<path d="M15.8594 3.24402H4.14062C3.1698 3.24402 2.38281 4.03101 2.38281 5.00183V16.7206C2.38281 17.6914 3.1698 18.4784 4.14062 18.4784H15.8594C16.8302 18.4784 17.6172 17.6914 17.6172 16.7206V5.00183C17.6172 4.03101 16.8302 3.24402 15.8594 3.24402ZM9.41406 16.7206C9.41406 17.0442 9.15172 17.3065 8.82812 17.3065H4.14062C3.81703 17.3065 3.55469 17.0442 3.55469 16.7206V12.0331C3.55469 11.7095 3.81703 11.4471 4.14062 11.4471H8.82812C9.15172 11.4471 9.41406 11.7095 9.41406 12.0331V16.7206ZM9.41406 9.68933C9.41406 10.0129 9.15172 10.2753 8.82812 10.2753H4.14062C3.81703 10.2753 3.55469 10.0129 3.55469 9.68933V5.00183C3.55469 4.67824 3.81703 4.41589 4.14062 4.41589H8.82812C9.15172 4.41589 9.41406 4.67824 9.41406 5.00183V9.68933ZM14.1016 16.7206C14.1016 17.0442 13.8392 17.3065 13.5156 17.3065H11.1719C10.8483 17.3065 10.5859 17.0442 10.5859 16.7206V14.3768C10.5859 14.0532 10.8483 13.7909 11.1719 13.7909H13.5156C13.8392 13.7909 14.1016 14.0532 14.1016 14.3768V16.7206ZM16.4453 16.7206C16.4453 17.0442 16.183 17.3065 15.8594 17.3065C15.5358 17.3065 15.2734 17.0442 15.2734 16.7206V15.9393C15.2734 15.6157 15.5358 15.3534 15.8594 15.3534C16.183 15.3534 16.4453 15.6157 16.4453 15.9393V16.7206ZM16.4453 13.5956C16.4453 13.9192 16.183 14.1815 15.8594 14.1815C15.5358 14.1815 15.2734 13.9192 15.2734 13.5956V12.619H11.1719C10.8483 12.619 10.5859 12.3567 10.5859 12.0331C10.5859 11.7095 10.8483 11.4471 11.1719 11.4471H15.8594C16.183 11.4471 16.4453 11.7095 16.4453 12.0331V13.5956ZM16.4453 9.68933C16.4453 10.0129 16.183 10.2753 15.8594 10.2753H11.1719C10.8483 10.2753 10.5859 10.0129 10.5859 9.68933V5.00183C10.5859 4.67824 10.8483 4.41589 11.1719 4.41589H15.8594C16.183 4.41589 16.4453 4.67824 16.4453 5.00183V9.68933Z" fill="black"/>
</g>
<defs>
<clipPath id="clip0">
<rect width="20" height="20" fill="white" transform="translate(0 0.861206)"/>
</clipPath>
</defs>
</svg>
