<svg width="20" height="21" viewBox="0 0 20 21" fill="none" xmlns="http://www.w3.org/2000/svg">
<g opacity="0.3" clip-path="url(#clip0)">
<path d="M12.7734 0.861176C8.78867 0.861176 5.54688 4.10297 5.54688 8.08774C5.54688 12.0725 8.78867 15.3143 12.7734 15.3143C16.7582 15.3143 20 12.0725 20 8.08774C20 4.10297 16.7582 0.861176 12.7734 0.861176ZM12.7734 14.1424C9.43484 14.1424 6.71875 11.4263 6.71875 8.08774C6.71875 4.74914 9.43484 2.03305 12.7734 2.03305C16.112 2.03305 18.8281 4.74914 18.8281 8.08774C18.8281 11.4263 16.112 14.1424 12.7734 14.1424Z" fill="black"/>
<path d="M12.7734 12.9706C15.4701 12.9706 17.6562 10.7844 17.6562 8.08774C17.6562 5.39104 15.4701 3.20493 12.7734 3.20493C10.0767 3.20493 7.89062 5.39104 7.89062 8.08774C7.89062 10.7844 10.0767 12.9706 12.7734 12.9706Z" fill="black"/>
<path d="M5.56618 12.3947L4.41692 13.544C4.18809 13.7728 4.18809 14.1438 4.41692 14.3726L6.48856 16.4442C6.71739 16.673 7.08837 16.673 7.3172 16.4442L8.46646 15.2949C7.27775 14.5819 6.27923 13.5834 5.56618 12.3947Z" fill="black"/>
<path d="M3.58781 15.2013L0.171133 18.618C-0.0576953 18.8468 -0.0576953 19.2178 0.171133 19.4466L1.4141 20.6896C1.64293 20.9184 2.01391 20.9184 2.24273 20.6896L5.65945 17.2729L3.58781 15.2013Z" fill="black"/>
</g>
<defs>
<clipPath id="clip0">
<rect width="20" height="20" fill="white" transform="translate(0 0.861176)"/>
</clipPath>
</defs>
</svg>
