<svg width="20" height="21" viewBox="0 0 20 21" fill="none" xmlns="http://www.w3.org/2000/svg">
<g opacity="0.6" clip-path="url(#clip0)">
<path d="M19.8779 19.4253L14.0681 13.6154C15.17 12.255 15.8334 10.5255 15.8334 8.6424C15.8334 4.27716 12.2819 0.725708 7.91666 0.725708C3.55141 0.725708 0 4.27716 0 8.6424C0 13.0076 3.55145 16.5591 7.9167 16.5591C9.79975 16.5591 11.5293 15.8957 12.8897 14.7938L18.6996 20.6037C18.8623 20.7664 19.1261 20.7664 19.2889 20.6037L19.878 20.0145C20.0407 19.8518 20.0407 19.588 19.8779 19.4253ZM7.9167 14.8924C4.47024 14.8924 1.66668 12.0889 1.66668 8.6424C1.66668 5.19595 4.47024 2.39239 7.9167 2.39239C11.3631 2.39239 14.1667 5.19595 14.1667 8.6424C14.1667 12.0889 11.3631 14.8924 7.9167 14.8924Z" fill="black"/>
</g>
<defs>
<clipPath id="clip0">
<rect width="20" height="20" fill="white" transform="translate(0 0.725708)"/>
</clipPath>
</defs>
</svg>
