<svg width="24" height="18" viewBox="0 0 24 18" fill="none" xmlns="http://www.w3.org/2000/svg">
<path d="M21.5853 2.68654H16.6234L16.0988 0.905293C16.067 0.797729 16.0013 0.703325 15.9115 0.636176C15.8216 0.569026 15.7125 0.532733 15.6003 0.532715H8.40112C8.28898 0.533083 8.17996 0.569709 8.09034 0.637125C8.00072 0.70454 7.93531 0.79913 7.90386 0.906777L7.37928 2.68803H5.7913V1.61037C5.7913 1.47258 5.73656 1.34044 5.63913 1.24301C5.5417 1.14558 5.40955 1.09084 5.27177 1.09084H3.23075C3.09296 1.09084 2.96082 1.14558 2.86339 1.24301C2.76595 1.34044 2.71122 1.47258 2.71122 1.61037V2.68654H2.41612C1.87081 2.68725 1.34803 2.90421 0.962459 3.28984C0.576888 3.67546 0.360003 4.19827 0.359375 4.74359V15.4085C0.360003 15.9538 0.576888 16.4767 0.962459 16.8623C1.34803 17.2479 1.87081 17.4649 2.41612 17.4656H21.5853C22.1307 17.4649 22.6534 17.2479 23.039 16.8623C23.4246 16.4767 23.6415 15.9538 23.6421 15.4085V4.74359C23.6415 4.19827 23.4246 3.67546 23.039 3.28984C22.6534 2.90421 22.1307 2.68725 21.5853 2.68654ZM3.75028 2.1299H4.75223V2.68654H3.75028V2.1299ZM22.6018 15.4085C22.6016 15.6784 22.4943 15.9371 22.3035 16.128C22.1127 16.3188 21.854 16.4262 21.5842 16.4265H2.41612C2.14626 16.4262 1.88755 16.3188 1.69675 16.128C1.50596 15.9371 1.39867 15.6784 1.39844 15.4085V4.74359C1.39867 4.47373 1.50596 4.21498 1.69675 4.02413C1.88755 3.83328 2.14626 3.72592 2.41612 3.72561H7.76641C7.87859 3.72568 7.98778 3.68943 8.07763 3.62226C8.16749 3.5551 8.23317 3.46064 8.26486 3.35303L8.78973 1.57326H15.2117L15.7366 3.35303C15.7683 3.46064 15.834 3.5551 15.9238 3.62226C16.0137 3.68943 16.1229 3.72568 16.2351 3.72561H21.5853C21.8552 3.72592 22.1139 3.83328 22.3047 4.02413C22.4955 4.21498 22.6028 4.47373 22.603 4.74359L22.6018 15.4085Z" fill="black"/>
<path d="M12.002 4.91309C10.9818 4.91309 9.98447 5.21561 9.13621 5.7824C8.28795 6.34919 7.62681 7.15479 7.2364 8.09733C6.84599 9.03987 6.74384 10.077 6.94287 11.0776C7.1419 12.0782 7.63317 12.9973 8.35456 13.7187C9.07594 14.4401 9.99505 14.9313 10.9956 15.1304C11.9962 15.3294 13.0334 15.2273 13.9759 14.8368C14.9185 14.4464 15.7241 13.7853 16.2908 12.937C16.8576 12.0888 17.1602 11.0915 17.1602 10.0713C17.1587 8.70371 16.6147 7.39256 15.6477 6.42554C14.6807 5.45851 13.3695 4.91458 12.002 4.91309ZM12.002 14.1904C11.1873 14.1904 10.3909 13.9488 9.71348 13.4962C9.03609 13.0436 8.50813 12.4003 8.19637 11.6476C7.8846 10.8949 7.80303 10.0667 7.96196 9.26768C8.1209 8.46865 8.51321 7.73469 9.08928 7.15862C9.66536 6.58254 10.3993 6.19023 11.1984 6.0313C11.9974 5.87236 12.8256 5.95393 13.5783 6.2657C14.331 6.57747 14.9743 7.10543 15.4269 7.78282C15.8795 8.46021 16.1211 9.2566 16.1211 10.0713C16.1198 11.1634 15.6855 12.2104 14.9132 12.9826C14.141 13.7548 13.094 14.1892 12.002 14.1904Z" fill="black"/>
<path d="M21.168 4.54199H19.2383C19.1005 4.54199 18.9683 4.59673 18.8709 4.69416C18.7735 4.79159 18.7188 4.92374 18.7188 5.06152V6.99121C18.7187 7.05945 18.7321 7.12702 18.7582 7.19007C18.7843 7.25312 18.8226 7.31041 18.8708 7.35866C18.9191 7.40691 18.9764 7.44518 19.0394 7.47127C19.1025 7.49737 19.17 7.51078 19.2383 7.51074H21.168C21.2362 7.51078 21.3038 7.49737 21.3668 7.47127C21.4299 7.44518 21.4872 7.40691 21.5354 7.35866C21.5837 7.31041 21.6219 7.25312 21.648 7.19007C21.6741 7.12702 21.6875 7.05945 21.6875 6.99121V5.06152C21.6875 4.92374 21.6328 4.79159 21.5353 4.69416C21.4379 4.59673 21.3058 4.54199 21.168 4.54199ZM20.6484 6.47168H19.7578V5.58105H20.6484V6.47168Z" fill="black"/>
<path d="M11.9992 6.86621C11.1491 6.86684 10.3339 7.20484 9.73275 7.80599C9.1316 8.40715 8.7936 9.2223 8.79297 10.0725C8.79297 10.2102 8.8477 10.3424 8.94514 10.4398C9.04257 10.5373 9.17471 10.592 9.3125 10.592C9.45029 10.592 9.58243 10.5373 9.67986 10.4398C9.7773 10.3424 9.83203 10.2102 9.83203 10.0725C9.83203 9.49768 10.0604 8.94645 10.4668 8.54003C10.8732 8.1336 11.4244 7.90527 11.9992 7.90527C12.137 7.90527 12.2692 7.85054 12.3666 7.75311C12.464 7.65568 12.5188 7.52353 12.5188 7.38574C12.5188 7.24795 12.464 7.11581 12.3666 7.01838C12.2692 6.92095 12.137 6.86621 11.9992 6.86621Z" fill="black"/>
</svg>
