<svg width="30" height="19" viewBox="0 0 30 19" fill="none" xmlns="http://www.w3.org/2000/svg">
<path fill-rule="evenodd" clip-rule="evenodd" d="M30.0004 17.4012L28.9399 18.4617L24.6971 14.219L25.7576 13.1585L30.0004 17.4012ZM20.2508 12.461C18.1831 12.461 16.5008 10.7788 16.5008 8.71102C16.5008 6.64328 18.1831 4.96104 20.2508 4.96104C22.3185 4.96104 24.0008 6.64328 24.0008 8.71102C24.0008 10.7788 22.3185 12.461 20.2508 12.461ZM20.25 3.46094C17.3505 3.46094 15 5.81143 15 8.71091C15 11.6104 17.3505 13.9609 20.25 13.9609C23.1495 13.9609 25.4999 11.6104 25.4999 8.71091C25.4999 5.81143 23.1495 3.46094 20.25 3.46094Z" fill="#FF5800"/>
<path fill-rule="evenodd" clip-rule="evenodd" d="M0 11.5382H16.1538V9.23047H0V11.5382ZM0 2.30768H23.0768V0H0V2.30768ZM0 6.92279H16.7307L17.3076 4.61511H0V6.92279Z" fill="#FF5800"/>
</svg>
