<svg width="22" height="22" viewBox="0 0 22 22" fill="none" xmlns="http://www.w3.org/2000/svg">
<path fill-rule="evenodd" clip-rule="evenodd" d="M18.5302 19.8H3.46785C2.79795 19.8 2.28425 19.2071 2.37885 18.5449L3.63615 9.74489C3.71315 9.20259 4.17736 8.79999 4.72516 8.79999H5.49846V11C5.49846 11.6072 5.99127 12.1 6.59847 12.1C7.20677 12.1 7.69847 11.6072 7.69847 11V8.79999H14.2985V11C14.2985 11.6072 14.7913 12.1 15.3985 12.1C16.0068 12.1 16.4985 11.6072 16.4985 11V8.79999H17.2729C17.8207 8.79999 18.2849 9.20259 18.3619 9.74489L19.6192 18.5449C19.7138 19.2071 19.2001 19.8 18.5302 19.8ZM7.70004 5.49997C7.70004 3.68056 9.18065 2.19995 11.0001 2.19995C12.8206 2.19995 14.3001 3.29996 14.3001 5.49997V6.59998H7.70004V5.49997ZM21.9775 19.4888L20.4056 8.48875C20.2516 7.40524 19.3232 6.60004 18.2276 6.60004H16.4995V5.50003C16.4995 2.20001 14.0322 0 10.9994 0C7.96783 0 5.49942 2.46731 5.49942 5.50003V6.60004H4.10791C3.01341 6.60004 1.7484 7.40524 1.5933 8.48875L0.0224929 19.4888C-0.166708 20.8143 0.861797 22.0001 2.2005 22.0001H19.7995C21.1382 22.0001 22.1667 20.8143 21.9775 19.4888Z" fill="#FF5800"/>
</svg>
