<svg  xmlns="http://www.w3.org/2000/svg">
    <symbol id="checkMark" viewBox="0 0 19 15">
        <g>
            <path d="M18.9225 2.61002L7.14194 14.3906C7.03817 14.4943 6.87016 14.4943 6.76664 14.3906L0.0776423 7.70132C-0.0258808 7.59804 -0.0258808 7.43002 0.0776423 7.32626L1.70298 5.70092C1.80674 5.5974 1.97476 5.5974 2.07828 5.70092L6.95453 10.5769L16.9221 0.609381C17.0261 0.505858 17.1936 0.505858 17.2974 0.609381L18.9225 2.23472C19.0262 2.33824 19.0262 2.50601 18.9225 2.61002Z" fill="#FF5800"/>
        </g>
    </symbol>
    <symbol id="arrow" viewBox="0 0 13 21">
        <g>
            <path d="M12.0557 11.5391L3.02605 20.5685C2.45165 21.1432 1.52037 21.1432 0.946249 20.5685C0.372084 19.9943 0.372084 19.0631 0.946249 18.489L8.93613 10.4994L0.946481 2.51001C0.372316 1.93562 0.372316 1.00447 0.946481 0.430309C1.52065 -0.144087 2.45189 -0.144087 3.02628 0.430309L12.056 9.45983C12.3431 9.74706 12.4864 10.1231 12.4864 10.4993C12.4864 10.8757 12.3428 11.252 12.0557 11.5391Z" fill="#FF5800"/>
        </g>
    </symbol>
</svg>
