<svg width="26" height="26" viewBox="0 0 26 26" fill="none" xmlns="http://www.w3.org/2000/svg">
<g clip-path="url(#clip0)">
<path d="M13.2967 12.3655C14.9511 12.3655 16.3836 11.7721 17.5543 10.6014C18.7246 9.43083 19.3182 7.9986 19.3182 6.34398C19.3182 4.68993 18.7248 3.25752 17.5541 2.0866C16.3834 0.916251 14.951 0.322876 13.2967 0.322876C11.6421 0.322876 10.2099 0.916251 9.03931 2.08679C7.86877 3.25733 7.27521 4.68974 7.27521 6.34398C7.27521 7.9986 7.86877 9.43102 9.03931 10.6016C10.2102 11.7719 11.6427 12.3655 13.2967 12.3655ZM10.0754 3.12267C10.9736 2.2245 12.0272 1.78791 13.2967 1.78791C14.566 1.78791 15.6199 2.2245 16.5182 3.12267C17.4164 4.02103 17.8532 5.07484 17.8532 6.34398C17.8532 7.61351 17.4164 8.66713 16.5182 9.56549C15.6199 10.4638 14.566 10.9004 13.2967 10.9004C12.0276 10.9004 10.9739 10.4637 10.0754 9.56549C9.17702 8.66732 8.74024 7.61351 8.74024 6.34398C8.74024 5.07484 9.17702 4.02103 10.0754 3.12267Z" fill="#FF5800"/>
<path d="M23.8327 19.5466C23.799 19.0595 23.7307 18.5281 23.6301 17.967C23.5287 17.4016 23.398 16.8672 23.2416 16.3787C23.0799 15.8739 22.8603 15.3753 22.5885 14.8975C22.3068 14.4016 21.9757 13.9698 21.6042 13.6144C21.2156 13.2427 20.7399 12.9438 20.1899 12.7258C19.6417 12.5089 19.0342 12.3991 18.3844 12.3991C18.1292 12.3991 17.8824 12.5038 17.4057 12.8141C17.1124 13.0054 16.7692 13.2267 16.3862 13.4714C16.0587 13.68 15.6151 13.8755 15.0671 14.0525C14.5325 14.2255 13.9896 14.3133 13.4537 14.3133C12.9181 14.3133 12.3753 14.2255 11.8403 14.0525C11.2928 13.8757 10.849 13.6802 10.5221 13.4716C10.1427 13.2291 9.79939 13.0079 9.50166 12.8139C9.02539 12.5036 8.77858 12.3989 8.52338 12.3989C7.87335 12.3989 7.26605 12.5089 6.71807 12.726C6.16837 12.9436 5.69249 13.2425 5.30358 13.6146C4.93203 13.9701 4.60091 14.4018 4.31939 14.8975C4.04797 15.3753 3.82825 15.8737 3.6665 16.3789C3.51029 16.8674 3.37964 17.4016 3.27817 17.967C3.17746 18.5274 3.10937 19.0589 3.07561 19.5472C3.04242 20.0246 3.02563 20.5215 3.02563 21.0235C3.02563 22.3285 3.44048 23.385 4.25854 24.1641C5.0665 24.933 6.13538 25.3228 7.43562 25.3228H19.4733C20.7731 25.3228 21.842 24.933 22.6502 24.1641C23.4684 23.3856 23.8833 22.3287 23.8833 21.0233C23.8831 20.5196 23.8661 20.0227 23.8327 19.5466ZM21.64 23.1027C21.1062 23.6108 20.3974 23.8578 19.4731 23.8578H7.43562C6.51112 23.8578 5.80235 23.6108 5.26868 23.1029C4.74511 22.6045 4.49067 21.9241 4.49067 21.0235C4.49067 20.5551 4.50612 20.0925 4.53702 19.6485C4.56715 19.2129 4.62876 18.7343 4.72012 18.2258C4.81034 17.7236 4.92516 17.2523 5.06173 16.8256C5.19276 16.4165 5.37148 16.0114 5.59312 15.6211C5.80464 15.2492 6.04802 14.9301 6.31657 14.673C6.56777 14.4325 6.88439 14.2356 7.25747 14.088C7.60251 13.9514 7.99027 13.8767 8.41122 13.8654C8.46253 13.8927 8.55389 13.9448 8.7019 14.0413C9.00307 14.2375 9.35021 14.4615 9.73397 14.7066C10.1666 14.9824 10.7239 15.2315 11.3897 15.4464C12.0705 15.6665 12.7647 15.7783 13.4539 15.7783C14.143 15.7783 14.8375 15.6665 15.5178 15.4466C16.1842 15.2313 16.7414 14.9824 17.1745 14.7062C17.5673 14.4552 17.9047 14.2377 18.2058 14.0413C18.3539 13.945 18.4452 13.8927 18.4965 13.8654C18.9177 13.8767 19.3054 13.9514 19.6507 14.088C20.0235 14.2356 20.3402 14.4327 20.5914 14.673C20.8599 14.9299 21.1033 15.249 21.3148 15.6213C21.5366 16.0114 21.7156 16.4167 21.8464 16.8254C21.9832 17.2527 22.0982 17.7238 22.1882 18.2256C22.2794 18.7351 22.3412 19.2138 22.3713 19.6487V19.6491C22.4024 20.0914 22.418 20.5537 22.4182 21.0235C22.418 21.9243 22.1636 22.6045 21.64 23.1027Z" fill="#FF5800"/>
</g>
<defs>
<clipPath id="clip0">
<rect width="25" height="25" fill="white" transform="translate(0.974854 0.322876)"/>
</clipPath>
</defs>
</svg>
