<svg width="43" height="43" viewBox="0 0 43 43" fill="none" xmlns="http://www.w3.org/2000/svg">
<path d="M21.1968 20.7133C24.0424 20.7133 26.5062 19.6927 28.5199 17.679C30.5329 15.6657 31.5538 13.2023 31.5538 10.3563C31.5538 7.51134 30.5332 5.04758 28.5195 3.0336C26.5059 1.02061 24.0421 0 21.1968 0C18.3509 0 15.8874 1.02061 13.8741 3.03393C11.8608 5.04725 10.8398 7.51101 10.8398 10.3563C10.8398 13.2023 11.8608 15.666 13.8741 17.6793C15.8881 19.6923 18.3519 20.7133 21.1968 20.7133ZM15.6562 4.81564C17.201 3.27079 19.0132 2.51985 21.1968 2.51985C23.3801 2.51985 25.1926 3.27079 26.7378 4.81564C28.2827 6.36082 29.0339 8.17337 29.0339 10.3563C29.0339 12.5399 28.2827 14.3521 26.7378 15.8973C25.1926 17.4425 23.3801 18.1934 21.1968 18.1934C19.0139 18.1934 17.2017 17.4421 15.6562 15.8973C14.111 14.3524 13.3597 12.5399 13.3597 10.3563C13.3597 8.17337 14.111 6.36082 15.6562 4.81564Z" fill="#FF5800"/>
<path d="M39.3155 33.0637C39.2574 32.2258 39.14 31.3118 38.9671 30.3467C38.7926 29.3743 38.5679 28.4551 38.2988 27.6149C38.0206 26.7465 37.643 25.889 37.1756 25.0672C36.691 24.2142 36.1215 23.4715 35.4824 22.8603C34.8141 22.2209 33.996 21.7068 33.0498 21.3318C32.107 20.9588 31.0621 20.7699 29.9444 20.7699C29.5054 20.7699 29.0809 20.95 28.2611 21.4837C27.7565 21.8128 27.1663 22.1933 26.5076 22.6142C25.9443 22.9731 25.1812 23.3094 24.2387 23.6138C23.3191 23.9114 22.3854 24.0623 21.4636 24.0623C20.5424 24.0623 19.6087 23.9114 18.6885 23.6138C17.7469 23.3097 16.9835 22.9735 16.4212 22.6146C15.7687 22.1976 15.1782 21.817 14.6661 21.4834C13.8469 20.9496 13.4224 20.7695 12.9835 20.7695C11.8654 20.7695 10.8209 20.9588 9.87833 21.3322C8.93285 21.7065 8.11433 22.2206 7.44541 22.8606C6.80634 23.4721 6.23682 24.2145 5.7526 25.0672C5.28577 25.889 4.90784 26.7462 4.62964 27.6152C4.36095 28.4554 4.13623 29.3743 3.9617 30.3467C3.78848 31.3105 3.67136 32.2248 3.6133 33.0647C3.55621 33.8858 3.52734 34.7404 3.52734 35.6039C3.52734 37.8485 4.24088 39.6657 5.64795 41.0058C7.03763 42.3282 8.8761 42.9988 11.1125 42.9988H31.8173C34.053 42.9988 35.8915 42.3282 37.2815 41.0058C38.6889 39.6666 39.4025 37.8488 39.4025 35.6036C39.4021 34.7372 39.3729 33.8826 39.3155 33.0637ZM35.5441 39.1801C34.6258 40.0541 33.4068 40.4789 31.817 40.4789H11.1125C9.52238 40.4789 8.3033 40.0541 7.38538 39.1804C6.48484 38.3232 6.0472 37.153 6.0472 35.6039C6.0472 34.7982 6.07378 34.0026 6.12692 33.2389C6.17876 32.4896 6.28472 31.6665 6.44186 30.7919C6.59704 29.9281 6.79453 29.1174 7.02943 28.3836C7.25481 27.6799 7.5622 26.9831 7.94341 26.3118C8.30724 25.6721 8.72585 25.1233 9.18776 24.681C9.61982 24.2673 10.1644 23.9288 10.8061 23.6749C11.3996 23.44 12.0665 23.3114 12.7906 23.292C12.8788 23.3389 13.0359 23.4285 13.2905 23.5945C13.8085 23.9321 14.4056 24.3172 15.0657 24.7388C15.8097 25.2131 16.7683 25.6416 17.9136 26.0113C19.0845 26.3899 20.2786 26.5822 21.4639 26.5822C22.6492 26.5822 23.8437 26.3899 25.0139 26.0117C26.1601 25.6413 27.1184 25.2131 27.8635 24.7381C28.5389 24.3064 29.1193 23.9324 29.6373 23.5945C29.8919 23.4288 30.049 23.3389 30.1373 23.292C30.8616 23.3114 31.5286 23.44 32.1224 23.6749C32.7637 23.9288 33.3083 24.2677 33.7404 24.681C34.2023 25.1229 34.6209 25.6718 34.9847 26.3122C35.3663 26.9831 35.674 27.6802 35.8991 28.3832C36.1343 29.1181 36.3321 29.9284 36.4869 30.7915C36.6438 31.6678 36.7501 32.4912 36.8019 33.2392V33.2399C36.8554 34.0007 36.8823 34.7959 36.8826 35.6039C36.8823 37.1533 36.4446 38.3232 35.5441 39.1801Z" fill="#FF5800"/>
</svg>
