<svg width="26" height="26" viewBox="0 0 26 26" fill="none" xmlns="http://www.w3.org/2000/svg">
<g clip-path="url(#clip0)">
<path d="M24.1508 3.94929C22.9178 2.55017 21.2072 1.77966 19.3342 1.77966C16.7 1.77966 15.0323 3.35291 14.0972 4.67273C13.8545 5.01521 13.6481 5.35862 13.4749 5.68176C13.3016 5.35862 13.0952 5.01521 12.8525 4.67273C11.9174 3.35291 10.2497 1.77966 7.61548 1.77966C5.74253 1.77966 4.03193 2.55022 2.79883 3.94934C1.62266 5.28401 0.974854 7.07151 0.974854 8.98254C0.974854 11.0628 1.78701 12.9976 3.53076 15.0714C5.08921 16.9249 7.33125 18.8355 9.92749 21.0478C10.8949 21.8722 11.8954 22.7248 12.9604 23.6567L12.9924 23.6847C13.1305 23.8056 13.3027 23.866 13.4749 23.866C13.647 23.866 13.8192 23.8055 13.9573 23.6847L13.9893 23.6567C15.0543 22.7248 16.0548 21.8723 17.0224 21.0477C19.6185 18.8355 21.8605 16.925 23.4189 15.0714C25.1627 12.9975 25.9749 11.0628 25.9749 8.98254C25.9749 7.07151 25.3271 5.28401 24.1508 3.94929ZM16.0722 19.9329C15.2382 20.6435 14.3799 21.3749 13.4749 22.1617C12.5699 21.375 11.7115 20.6436 10.8774 19.9328C5.79639 15.6031 2.4397 12.7427 2.4397 8.98254C2.4397 7.42834 2.95752 5.98479 3.8978 4.91785C4.84888 3.83879 6.16914 3.24451 7.61548 3.24451C9.62373 3.24451 10.9219 4.48171 11.6573 5.5196C12.3169 6.45046 12.6611 7.38884 12.7785 7.74905C12.8767 8.05056 13.1578 8.25461 13.4749 8.25461C13.7919 8.25461 14.073 8.05056 14.1712 7.74905C14.2886 7.38884 14.6328 6.45046 15.2924 5.51956C16.0278 4.48171 17.326 3.24451 19.3342 3.24451C20.7806 3.24451 22.1008 3.83879 23.0519 4.91785C23.9922 5.98479 24.51 7.42834 24.51 8.98254C24.51 12.7427 21.1533 15.6031 16.0722 19.9329Z" fill="#FF5800"/>
</g>
<defs>
<clipPath id="clip0">
<rect width="25" height="25" fill="white" transform="translate(0.974854 0.322876)"/>
</clipPath>
</defs>
</svg>
